<svg width="25" height="25" viewBox="0 0 25 25" fill="none" xmlns="http://www.w3.org/2000/svg">
<path d="M0 25V17.5H7.5V25H0ZM8.75 25V17.5H16.25V25H8.75ZM17.5 25V17.5H25V25H17.5ZM0 16.25V8.75H7.5V16.25H0ZM8.75 16.25V8.75H16.25V16.25H8.75ZM17.5 16.25V8.75H25V16.25H17.5ZM0 7.5V0H7.5V7.5H0ZM8.75 7.5V0H16.25V7.5H8.75ZM17.5 7.5V0H25V7.5H17.5Z" fill="url(#paint0_linear_172_297)"/>
<defs>
<linearGradient id="paint0_linear_172_297" x1="24" y1="1" x2="1" y2="24.5" gradientUnits="userSpaceOnUse">
<stop stop-color="#B300FF"/>
<stop offset="1" stop-color="#680095"/>
</linearGradient>
</defs>
</svg>
