<svg width="18" height="25" viewBox="0 0 18 25" fill="none" xmlns="http://www.w3.org/2000/svg">
<path d="M6.25 20C5.5625 20 4.97396 19.7552 4.48438 19.2656C3.99479 18.776 3.75 18.1875 3.75 17.5V15.9375C2.5625 15.125 1.64062 14.0833 0.984375 12.8125C0.328125 11.5417 0 10.1875 0 8.75C0 6.3125 0.848958 4.24479 2.54688 2.54688C4.24479 0.848958 6.3125 0 8.75 0C11.1875 0 13.2552 0.848958 14.9531 2.54688C16.651 4.24479 17.5 6.3125 17.5 8.75C17.5 10.1875 17.1719 11.5365 16.5156 12.7969C15.8594 14.0573 14.9375 15.1042 13.75 15.9375V17.5C13.75 18.1875 13.5052 18.776 13.0156 19.2656C12.526 19.7552 11.9375 20 11.25 20H6.25ZM6.25 25C5.89583 25 5.59896 24.8802 5.35938 24.6406C5.11979 24.401 5 24.1042 5 23.75V22.5H12.5V23.75C12.5 24.1042 12.3802 24.401 12.1406 24.6406C11.901 24.8802 11.6042 25 11.25 25H6.25Z" fill="url(#paint0_linear_172_295)"/>
<defs>
<linearGradient id="paint0_linear_172_295" x1="15.5" y1="3" x2="3.5" y2="23" gradientUnits="userSpaceOnUse">
<stop stop-color="#00FFF2"/>
<stop offset="1" stop-color="#00817A"/>
</linearGradient>
</defs>
</svg>
