<svg width="154" height="47" viewBox="0 0 154 47" fill="none" xmlns="http://www.w3.org/2000/svg">
<rect x="20.9639" width="5.07194" height="1.69065" rx="0.845324" fill="#F32A60"/>
<rect x="18.4277" y="3.38129" width="10.1439" height="1.69065" rx="0.845324" fill="#F32A60"/>
<rect x="18.4277" y="16.9065" width="10.1439" height="1.69065" rx="0.845324" fill="#FF9113"/>
<rect x="15.0464" y="6.7626" width="16.9065" height="1.69065" rx="0.845324" fill="#F32A60"/>
<rect x="15.0464" y="13.5252" width="16.9065" height="1.69065" rx="0.845324" fill="#F32A60"/>
<rect x="13.356" y="10.1439" width="20.2878" height="1.69065" rx="0.845324" fill="#F32A60"/>
<rect width="5.07194" height="1.69065" rx="0.845324" transform="matrix(1 0 0 -1 20.9639 47)" fill="#FF00B3"/>
<rect width="10.1439" height="1.69065" rx="0.845324" transform="matrix(1 0 0 -1 18.4277 43.6187)" fill="#FF00B3"/>
<rect width="10.1439" height="1.69065" rx="0.845324" transform="matrix(1 0 0 -1 18.4277 30.0935)" fill="#FF9113"/>
<rect width="16.9065" height="1.69065" rx="0.845324" transform="matrix(1 0 0 -1 15.0464 40.2374)" fill="#FF00B3"/>
<rect width="16.9065" height="1.69065" rx="0.845324" transform="matrix(1 0 0 -1 15.0464 33.4748)" fill="#FF00B3"/>
<rect width="20.2878" height="1.69065" rx="0.845324" transform="matrix(1 0 0 -1 13.356 36.8561)" fill="#FF00B3"/>
<rect x="47" y="20.964" width="5.07194" height="1.69065" rx="0.845324" transform="rotate(90 47 20.964)" fill="#00FFF2"/>
<rect x="43.6187" y="18.428" width="10.1439" height="1.69065" rx="0.845324" transform="rotate(90 43.6187 18.428)" fill="#00FFF2"/>
<rect x="30.0938" y="18.428" width="10.1439" height="1.69065" rx="0.845324" transform="rotate(90 30.0938 18.428)" fill="#FF9113"/>
<rect x="40.2373" y="15.0468" width="16.9065" height="1.69065" rx="0.845324" transform="rotate(90 40.2373 15.0468)" fill="#00FFF2"/>
<rect x="33.4746" y="15.0468" width="16.9065" height="1.69065" rx="0.845324" transform="rotate(90 33.4746 15.0468)" fill="#00FFF2"/>
<rect x="36.856" y="13.3561" width="20.2878" height="1.69065" rx="0.845324" transform="rotate(90 36.856 13.3561)" fill="#00FFF2"/>
<rect width="5.07194" height="1.69065" rx="0.845324" transform="matrix(4.37114e-08 1 1 -4.37114e-08 0 20.964)" fill="#B300FF"/>
<rect width="10.1439" height="1.69065" rx="0.845324" transform="matrix(4.37114e-08 1 1 -4.37114e-08 3.38135 18.428)" fill="#B300FF"/>
<rect width="10.1439" height="1.69065" rx="0.845324" transform="matrix(4.37114e-08 1 1 -4.37114e-08 16.9062 18.428)" fill="#FF9113"/>
<rect width="16.9065" height="1.69065" rx="0.845324" transform="matrix(4.37114e-08 1 1 -4.37114e-08 6.7627 15.0468)" fill="#B300FF"/>
<rect width="16.9065" height="1.69065" rx="0.845324" transform="matrix(4.37114e-08 1 1 -4.37114e-08 13.5254 15.0468)" fill="#B300FF"/>
<rect width="20.2878" height="1.69065" rx="0.845324" transform="matrix(4.37114e-08 1 1 -4.37114e-08 10.144 13.3561)" fill="#B300FF"/>
<path d="M73.206 32.4545V33.8182H69.2642V32.4545H73.206ZM70.1591 30.8864H71.9744V36.9886C71.9744 37.1562 72 37.2869 72.0511 37.3807C72.1023 37.4716 72.1733 37.5355 72.2642 37.5724C72.358 37.6094 72.4659 37.6278 72.5881 37.6278C72.6733 37.6278 72.7585 37.6207 72.8438 37.6065C72.929 37.5895 72.9943 37.5767 73.0398 37.5682L73.3253 38.919C73.2344 38.9474 73.1065 38.9801 72.9418 39.017C72.777 39.0568 72.5767 39.081 72.3409 39.0895C71.9034 39.1065 71.5199 39.0483 71.1903 38.9148C70.8636 38.7812 70.6094 38.5739 70.4276 38.2926C70.2457 38.0114 70.1563 37.6562 70.1591 37.2273V30.8864ZM78.5011 39.1278C77.8278 39.1278 77.2483 38.9915 76.7625 38.7188C76.2795 38.4432 75.9074 38.054 75.646 37.5511C75.3847 37.0455 75.254 36.4474 75.254 35.7571C75.254 35.0838 75.3847 34.4929 75.646 33.9844C75.9074 33.4759 76.2753 33.0795 76.7497 32.7955C77.227 32.5114 77.7866 32.3693 78.4287 32.3693C78.8605 32.3693 79.2625 32.4389 79.6347 32.5781C80.0097 32.7145 80.3364 32.9205 80.6148 33.196C80.896 33.4716 81.1148 33.8182 81.271 34.2358C81.4273 34.6506 81.5054 35.1364 81.5054 35.6932V36.1918H75.9784V35.0668H79.7966C79.7966 34.8054 79.7398 34.5739 79.6261 34.3722C79.5125 34.1705 79.3548 34.0128 79.1531 33.8991C78.9543 33.7827 78.7227 33.7244 78.4585 33.7244C78.183 33.7244 77.9386 33.7884 77.7256 33.9162C77.5153 34.0412 77.3506 34.2102 77.2312 34.4233C77.1119 34.6335 77.0509 34.8679 77.048 35.1264V36.196C77.048 36.5199 77.1077 36.7997 77.227 37.0355C77.3491 37.2713 77.521 37.4531 77.7426 37.581C77.9642 37.7088 78.227 37.7727 78.531 37.7727C78.7327 37.7727 78.9173 37.7443 79.0849 37.6875C79.2526 37.6307 79.396 37.5455 79.5153 37.4318C79.6347 37.3182 79.7256 37.179 79.7881 37.0142L81.467 37.125C81.3818 37.5284 81.2071 37.8807 80.9429 38.1818C80.6815 38.4801 80.3435 38.7131 79.9287 38.8807C79.5168 39.0455 79.0409 39.1278 78.5011 39.1278ZM86.8474 39.1278C86.177 39.1278 85.6003 38.9858 85.1173 38.7017C84.6372 38.4148 84.2679 38.017 84.0094 37.5085C83.7537 37 83.6259 36.4148 83.6259 35.7528C83.6259 35.0824 83.7551 34.4943 84.0136 33.9886C84.275 33.4801 84.6457 33.0838 85.1259 32.7997C85.606 32.5128 86.177 32.3693 86.8389 32.3693C87.4099 32.3693 87.9099 32.473 88.3389 32.6804C88.7679 32.8878 89.1074 33.179 89.3574 33.554C89.6074 33.929 89.7452 34.3693 89.7707 34.875H88.0577C88.0094 34.5483 87.8815 34.2855 87.6741 34.0866C87.4696 33.8849 87.2011 33.7841 86.8687 33.7841C86.5875 33.7841 86.3418 33.8608 86.1315 34.0142C85.9241 34.1648 85.7622 34.3849 85.6457 34.6747C85.5293 34.9645 85.471 35.3153 85.471 35.7273C85.471 36.1449 85.5278 36.5 85.6415 36.7926C85.758 37.0852 85.9213 37.3082 86.1315 37.4616C86.3418 37.6151 86.5875 37.6918 86.8687 37.6918C87.0761 37.6918 87.2622 37.6491 87.427 37.5639C87.5946 37.4787 87.7324 37.3551 87.8403 37.1932C87.9511 37.0284 88.0236 36.831 88.0577 36.6009H89.7707C89.7423 37.1009 89.606 37.5412 89.3616 37.9219C89.1202 38.2997 88.7864 38.5952 88.3602 38.8082C87.9341 39.0213 87.4298 39.1278 86.8474 39.1278ZM93.9484 35.2159V39H92.133V30.2727H93.8972V33.6094H93.9739C94.1217 33.223 94.3603 32.9205 94.6898 32.7017C95.0194 32.4801 95.4327 32.3693 95.9299 32.3693C96.3844 32.3693 96.7808 32.4688 97.1188 32.6676C97.4597 32.8636 97.7239 33.1463 97.9114 33.5156C98.1018 33.8821 98.1955 34.321 98.1927 34.8324V39H96.3773V35.1562C96.3802 34.7528 96.2779 34.4389 96.0705 34.2145C95.866 33.9901 95.579 33.8778 95.2097 33.8778C94.9626 33.8778 94.7438 33.9304 94.5535 34.0355C94.366 34.1406 94.2183 34.294 94.1103 34.4957C94.0052 34.6946 93.9512 34.9347 93.9484 35.2159Z" fill="white"/>
<path d="M70.2642 20V5.45455H79.8949V7.99006H73.3395V11.456H79.2557V13.9915H73.3395V20H70.2642ZM82.9634 20V5.45455H86.0387V17.4645H92.2745V20H82.9634ZM108.111 12.7273C108.111 14.3134 107.81 15.6629 107.209 16.7756C106.613 17.8883 105.798 18.7382 104.766 19.3253C103.739 19.9077 102.583 20.1989 101.3 20.1989C100.007 20.1989 98.8474 19.9053 97.82 19.3182C96.7925 18.7311 95.9805 17.8812 95.3839 16.7685C94.7873 15.6558 94.489 14.3087 94.489 12.7273C94.489 11.1411 94.7873 9.79167 95.3839 8.67898C95.9805 7.56629 96.7925 6.71875 97.82 6.13636C98.8474 5.54924 100.007 5.25568 101.3 5.25568C102.583 5.25568 103.739 5.54924 104.766 6.13636C105.798 6.71875 106.613 7.56629 107.209 8.67898C107.81 9.79167 108.111 11.1411 108.111 12.7273ZM104.993 12.7273C104.993 11.6998 104.839 10.8333 104.532 10.1278C104.229 9.42235 103.8 8.88731 103.246 8.52273C102.692 8.15814 102.043 7.97585 101.3 7.97585C100.557 7.97585 99.908 8.15814 99.354 8.52273C98.8001 8.88731 98.3692 9.42235 98.0614 10.1278C97.7584 10.8333 97.6069 11.6998 97.6069 12.7273C97.6069 13.7547 97.7584 14.6212 98.0614 15.3267C98.3692 16.0322 98.8001 16.5672 99.354 16.9318C99.908 17.2964 100.557 17.4787 101.3 17.4787C102.043 17.4787 102.692 17.2964 103.246 16.9318C103.8 16.5672 104.229 16.0322 104.532 15.3267C104.839 14.6212 104.993 13.7547 104.993 12.7273ZM111.389 20V5.45455H117.128C118.226 5.45455 119.164 5.65104 119.94 6.04403C120.722 6.43229 121.316 6.9839 121.723 7.69886C122.135 8.40909 122.341 9.24479 122.341 10.206C122.341 11.1719 122.133 12.0028 121.716 12.6989C121.299 13.3902 120.696 13.9205 119.905 14.2898C119.119 14.6591 118.167 14.8438 117.05 14.8438H113.207V12.3722H116.553C117.14 12.3722 117.627 12.2917 118.016 12.1307C118.404 11.9697 118.693 11.7282 118.882 11.4062C119.076 11.0843 119.173 10.6842 119.173 10.206C119.173 9.72301 119.076 9.31581 118.882 8.98438C118.693 8.65294 118.402 8.40199 118.009 8.23153C117.62 8.05634 117.13 7.96875 116.538 7.96875H114.464V20H111.389ZM119.244 13.3807L122.859 20H119.464L115.928 13.3807H119.244ZM128.021 20H124.726L129.747 5.45455H133.71L138.724 20H135.429L131.786 8.77841H131.672L128.021 20ZM127.815 14.2827H135.599V16.6832H127.815V14.2827ZM141.475 20V5.45455H147.214C148.312 5.45455 149.25 5.65104 150.026 6.04403C150.808 6.43229 151.402 6.9839 151.809 7.69886C152.221 8.40909 152.427 9.24479 152.427 10.206C152.427 11.1719 152.219 12.0028 151.802 12.6989C151.385 13.3902 150.781 13.9205 149.991 14.2898C149.205 14.6591 148.253 14.8438 147.136 14.8438H143.293V12.3722H146.638C147.226 12.3722 147.713 12.2917 148.102 12.1307C148.49 11.9697 148.779 11.7282 148.968 11.4062C149.162 11.0843 149.259 10.6842 149.259 10.206C149.259 9.72301 149.162 9.31581 148.968 8.98438C148.779 8.65294 148.487 8.40199 148.094 8.23153C147.706 8.05634 147.216 7.96875 146.624 7.96875H144.55V20H141.475ZM149.33 13.3807L152.945 20H149.55L146.013 13.3807H149.33Z" fill="white"/>
</svg>
