<svg width="47" height="47" viewBox="0 0 47 47" fill="none" xmlns="http://www.w3.org/2000/svg">
<rect x="20.9639" width="5.07194" height="1.69065" rx="0.845324" fill="#FF9113"/>
<rect x="18.4277" y="3.38129" width="10.1439" height="1.69065" rx="0.845324" fill="#FF9113"/>
<rect x="18.4277" y="16.9065" width="10.1439" height="1.69065" rx="0.845324" fill="#FF9113"/>
<rect x="15.0464" y="6.7626" width="16.9065" height="1.69065" rx="0.845324" fill="#FF9113"/>
<rect x="15.0464" y="13.5252" width="16.9065" height="1.69065" rx="0.845324" fill="#FF9113"/>
<rect x="13.356" y="10.1439" width="20.2878" height="1.69065" rx="0.845324" fill="#FF9113"/>
<rect width="5.07194" height="1.69065" rx="0.845324" transform="matrix(1 0 0 -1 20.9639 47)" fill="#FF9113"/>
<rect width="10.1439" height="1.69065" rx="0.845324" transform="matrix(1 0 0 -1 18.4277 43.6187)" fill="#FF9113"/>
<rect width="10.1439" height="1.69065" rx="0.845324" transform="matrix(1 0 0 -1 18.4277 30.0935)" fill="#FF9113"/>
<rect width="16.9065" height="1.69065" rx="0.845324" transform="matrix(1 0 0 -1 15.0464 40.2374)" fill="#FF9113"/>
<rect width="16.9065" height="1.69065" rx="0.845324" transform="matrix(1 0 0 -1 15.0464 33.4748)" fill="#FF9113"/>
<rect width="20.2878" height="1.69065" rx="0.845324" transform="matrix(1 0 0 -1 13.356 36.8561)" fill="#FF9113"/>
<rect x="47" y="20.964" width="5.07194" height="1.69065" rx="0.845324" transform="rotate(90 47 20.964)" fill="#FF9113"/>
<rect x="43.6187" y="18.428" width="10.1439" height="1.69065" rx="0.845324" transform="rotate(90 43.6187 18.428)" fill="#FF9113"/>
<rect x="30.0938" y="18.428" width="10.1439" height="1.69065" rx="0.845324" transform="rotate(90 30.0938 18.428)" fill="#FF9113"/>
<rect x="40.2373" y="15.0468" width="16.9065" height="1.69065" rx="0.845324" transform="rotate(90 40.2373 15.0468)" fill="#FF9113"/>
<rect x="33.4746" y="15.0468" width="16.9065" height="1.69065" rx="0.845324" transform="rotate(90 33.4746 15.0468)" fill="#FF9113"/>
<rect x="36.856" y="13.3561" width="20.2878" height="1.69065" rx="0.845324" transform="rotate(90 36.856 13.3561)" fill="#FF9113"/>
<rect width="5.07194" height="1.69065" rx="0.845324" transform="matrix(4.37114e-08 1 1 -4.37114e-08 0 20.964)" fill="#FF9113"/>
<rect width="10.1439" height="1.69065" rx="0.845324" transform="matrix(4.37114e-08 1 1 -4.37114e-08 3.38135 18.428)" fill="#FF9113"/>
<rect width="10.1439" height="1.69065" rx="0.845324" transform="matrix(4.37114e-08 1 1 -4.37114e-08 16.9062 18.428)" fill="#FF9113"/>
<rect width="16.9065" height="1.69065" rx="0.845324" transform="matrix(4.37114e-08 1 1 -4.37114e-08 6.7627 15.0468)" fill="#FF9113"/>
<rect width="16.9065" height="1.69065" rx="0.845324" transform="matrix(4.37114e-08 1 1 -4.37114e-08 13.5254 15.0468)" fill="#FF9113"/>
<rect width="20.2878" height="1.69065" rx="0.845324" transform="matrix(4.37114e-08 1 1 -4.37114e-08 10.144 13.3561)" fill="#FF9113"/>
</svg>
