<svg width="162" height="47" viewBox="0 0 162 47" fill="none" xmlns="http://www.w3.org/2000/svg">
<rect x="20.9639" width="5.07194" height="1.69065" rx="0.845324" fill="#F32A60"/>
<rect x="18.4277" y="3.38129" width="10.1439" height="1.69065" rx="0.845324" fill="#F32A60"/>
<rect x="18.4277" y="16.9065" width="10.1439" height="1.69065" rx="0.845324" fill="#FF9113"/>
<rect x="15.0464" y="6.7626" width="16.9065" height="1.69065" rx="0.845324" fill="#F32A60"/>
<rect x="15.0464" y="13.5252" width="16.9065" height="1.69065" rx="0.845324" fill="#F32A60"/>
<rect x="13.356" y="10.1439" width="20.2878" height="1.69065" rx="0.845324" fill="#F32A60"/>
<rect width="5.07194" height="1.69065" rx="0.845324" transform="matrix(1 0 0 -1 20.9639 47)" fill="#FF00B3"/>
<rect width="10.1439" height="1.69065" rx="0.845324" transform="matrix(1 0 0 -1 18.4277 43.6187)" fill="#FF00B3"/>
<rect width="10.1439" height="1.69065" rx="0.845324" transform="matrix(1 0 0 -1 18.4277 30.0935)" fill="#FF9113"/>
<rect width="16.9065" height="1.69065" rx="0.845324" transform="matrix(1 0 0 -1 15.0464 40.2374)" fill="#FF00B3"/>
<rect width="16.9065" height="1.69065" rx="0.845324" transform="matrix(1 0 0 -1 15.0464 33.4748)" fill="#FF00B3"/>
<rect width="20.2878" height="1.69065" rx="0.845324" transform="matrix(1 0 0 -1 13.356 36.8561)" fill="#FF00B3"/>
<rect x="47" y="20.964" width="5.07194" height="1.69065" rx="0.845324" transform="rotate(90 47 20.964)" fill="#00FFF2"/>
<rect x="43.6187" y="18.428" width="10.1439" height="1.69065" rx="0.845324" transform="rotate(90 43.6187 18.428)" fill="#00FFF2"/>
<rect x="30.0938" y="18.428" width="10.1439" height="1.69065" rx="0.845324" transform="rotate(90 30.0938 18.428)" fill="#FF9113"/>
<rect x="40.2373" y="15.0468" width="16.9065" height="1.69065" rx="0.845324" transform="rotate(90 40.2373 15.0468)" fill="#00FFF2"/>
<rect x="33.4746" y="15.0468" width="16.9065" height="1.69065" rx="0.845324" transform="rotate(90 33.4746 15.0468)" fill="#00FFF2"/>
<rect x="36.856" y="13.3561" width="20.2878" height="1.69065" rx="0.845324" transform="rotate(90 36.856 13.3561)" fill="#00FFF2"/>
<rect width="5.07194" height="1.69065" rx="0.845324" transform="matrix(4.37114e-08 1 1 -4.37114e-08 0 20.964)" fill="#B300FF"/>
<rect width="10.1439" height="1.69065" rx="0.845324" transform="matrix(4.37114e-08 1 1 -4.37114e-08 3.38135 18.428)" fill="#B300FF"/>
<rect width="10.1439" height="1.69065" rx="0.845324" transform="matrix(4.37114e-08 1 1 -4.37114e-08 16.9062 18.428)" fill="#FF9113"/>
<rect width="16.9065" height="1.69065" rx="0.845324" transform="matrix(4.37114e-08 1 1 -4.37114e-08 6.7627 15.0468)" fill="#B300FF"/>
<rect width="16.9065" height="1.69065" rx="0.845324" transform="matrix(4.37114e-08 1 1 -4.37114e-08 13.5254 15.0468)" fill="#B300FF"/>
<rect width="20.2878" height="1.69065" rx="0.845324" transform="matrix(4.37114e-08 1 1 -4.37114e-08 10.144 13.3561)" fill="#B300FF"/>
<path d="M73.206 32.4545V33.8182H69.2642V32.4545H73.206ZM70.1591 30.8864H71.9744V36.9886C71.9744 37.1562 72 37.2869 72.0511 37.3807C72.1023 37.4716 72.1733 37.5355 72.2642 37.5724C72.358 37.6094 72.4659 37.6278 72.5881 37.6278C72.6733 37.6278 72.7585 37.6207 72.8438 37.6065C72.929 37.5895 72.9943 37.5767 73.0398 37.5682L73.3253 38.919C73.2344 38.9474 73.1065 38.9801 72.9418 39.017C72.777 39.0568 72.5767 39.081 72.3409 39.0895C71.9034 39.1065 71.5199 39.0483 71.1903 38.9148C70.8636 38.7812 70.6094 38.5739 70.4276 38.2926C70.2457 38.0114 70.1563 37.6562 70.1591 37.2273V30.8864ZM78.5011 39.1278C77.8278 39.1278 77.2483 38.9915 76.7625 38.7188C76.2795 38.4432 75.9074 38.054 75.646 37.5511C75.3847 37.0455 75.254 36.4474 75.254 35.7571C75.254 35.0838 75.3847 34.4929 75.646 33.9844C75.9074 33.4759 76.2753 33.0795 76.7497 32.7955C77.227 32.5114 77.7866 32.3693 78.4287 32.3693C78.8605 32.3693 79.2625 32.4389 79.6347 32.5781C80.0097 32.7145 80.3364 32.9205 80.6148 33.196C80.896 33.4716 81.1148 33.8182 81.271 34.2358C81.4273 34.6506 81.5054 35.1364 81.5054 35.6932V36.1918H75.9784V35.0668H79.7966C79.7966 34.8054 79.7398 34.5739 79.6261 34.3722C79.5125 34.1705 79.3548 34.0128 79.1531 33.8991C78.9543 33.7827 78.7227 33.7244 78.4585 33.7244C78.183 33.7244 77.9386 33.7884 77.7256 33.9162C77.5153 34.0412 77.3506 34.2102 77.2312 34.4233C77.1119 34.6335 77.0509 34.8679 77.048 35.1264V36.196C77.048 36.5199 77.1077 36.7997 77.227 37.0355C77.3491 37.2713 77.521 37.4531 77.7426 37.581C77.9642 37.7088 78.227 37.7727 78.531 37.7727C78.7327 37.7727 78.9173 37.7443 79.0849 37.6875C79.2526 37.6307 79.396 37.5455 79.5153 37.4318C79.6347 37.3182 79.7256 37.179 79.7881 37.0142L81.467 37.125C81.3818 37.5284 81.2071 37.8807 80.9429 38.1818C80.6815 38.4801 80.3435 38.7131 79.9287 38.8807C79.5168 39.0455 79.0409 39.1278 78.5011 39.1278ZM86.8474 39.1278C86.177 39.1278 85.6003 38.9858 85.1173 38.7017C84.6372 38.4148 84.2679 38.017 84.0094 37.5085C83.7537 37 83.6259 36.4148 83.6259 35.7528C83.6259 35.0824 83.7551 34.4943 84.0136 33.9886C84.275 33.4801 84.6457 33.0838 85.1259 32.7997C85.606 32.5128 86.177 32.3693 86.8389 32.3693C87.4099 32.3693 87.9099 32.473 88.3389 32.6804C88.7679 32.8878 89.1074 33.179 89.3574 33.554C89.6074 33.929 89.7452 34.3693 89.7707 34.875H88.0577C88.0094 34.5483 87.8815 34.2855 87.6741 34.0866C87.4696 33.8849 87.2011 33.7841 86.8687 33.7841C86.5875 33.7841 86.3418 33.8608 86.1315 34.0142C85.9241 34.1648 85.7622 34.3849 85.6457 34.6747C85.5293 34.9645 85.471 35.3153 85.471 35.7273C85.471 36.1449 85.5278 36.5 85.6415 36.7926C85.758 37.0852 85.9213 37.3082 86.1315 37.4616C86.3418 37.6151 86.5875 37.6918 86.8687 37.6918C87.0761 37.6918 87.2622 37.6491 87.427 37.5639C87.5946 37.4787 87.7324 37.3551 87.8403 37.1932C87.9511 37.0284 88.0236 36.831 88.0577 36.6009H89.7707C89.7423 37.1009 89.606 37.5412 89.3616 37.9219C89.1202 38.2997 88.7864 38.5952 88.3602 38.8082C87.9341 39.0213 87.4298 39.1278 86.8474 39.1278ZM93.9484 35.2159V39H92.133V30.2727H93.8972V33.6094H93.9739C94.1217 33.223 94.3603 32.9205 94.6898 32.7017C95.0194 32.4801 95.4327 32.3693 95.9299 32.3693C96.3844 32.3693 96.7808 32.4688 97.1188 32.6676C97.4597 32.8636 97.7239 33.1463 97.9114 33.5156C98.1018 33.8821 98.1955 34.321 98.1927 34.8324V39H96.3773V35.1562C96.3802 34.7528 96.2779 34.4389 96.0705 34.2145C95.866 33.9901 95.579 33.8778 95.2097 33.8778C94.9626 33.8778 94.7438 33.9304 94.5535 34.0355C94.366 34.1406 94.2183 34.294 94.1103 34.4957C94.0052 34.6946 93.9512 34.9347 93.9484 35.2159Z" fill="white"/>
<path d="M70.3906 23V7H80.9844V9.78906H73.7734V13.6016H80.2813V16.3906H73.7734V23H70.3906ZM84.3598 23V7H87.7426V20.2109H94.602V23H84.3598ZM112.022 15C112.022 16.7448 111.692 18.2292 111.03 19.4531C110.374 20.6771 109.478 21.612 108.343 22.2578C107.212 22.8984 105.942 23.2187 104.53 23.2187C103.108 23.2187 101.832 22.8958 100.702 22.25C99.5717 21.6042 98.6785 20.6693 98.0223 19.4453C97.366 18.2214 97.0379 16.7396 97.0379 15C97.0379 13.2552 97.366 11.7708 98.0223 10.5469C98.6785 9.32292 99.5717 8.39062 100.702 7.75C101.832 7.10417 103.108 6.78125 104.53 6.78125C105.942 6.78125 107.212 7.10417 108.343 7.75C109.478 8.39062 110.374 9.32292 111.03 10.5469C111.692 11.7708 112.022 13.2552 112.022 15ZM108.593 15C108.593 13.8698 108.423 12.9167 108.085 12.1406C107.751 11.3646 107.28 10.776 106.671 10.375C106.061 9.97396 105.348 9.77344 104.53 9.77344C103.712 9.77344 102.999 9.97396 102.389 10.375C101.78 10.776 101.306 11.3646 100.968 12.1406C100.634 12.9167 100.468 13.8698 100.468 15C100.468 16.1302 100.634 17.0833 100.968 17.8594C101.306 18.6354 101.78 19.224 102.389 19.625C102.999 20.026 103.712 20.2266 104.53 20.2266C105.348 20.2266 106.061 20.026 106.671 19.625C107.28 19.224 107.751 18.6354 108.085 17.8594C108.423 17.0833 108.593 16.1302 108.593 15ZM115.628 23V7H121.941C123.149 7 124.18 7.21615 125.034 7.64844C125.894 8.07552 126.547 8.68229 126.995 9.46875C127.448 10.25 127.675 11.1693 127.675 12.2266C127.675 13.2891 127.446 14.2031 126.988 14.9687C126.529 15.7292 125.865 16.3125 124.995 16.7187C124.131 17.125 123.084 17.3281 121.855 17.3281H117.628V14.6094H121.308C121.954 14.6094 122.49 14.5208 122.917 14.3438C123.344 14.1667 123.662 13.901 123.87 13.5469C124.084 13.1927 124.191 12.7526 124.191 12.2266C124.191 11.6953 124.084 11.2474 123.87 10.8828C123.662 10.5182 123.342 10.2422 122.909 10.0547C122.482 9.86198 121.943 9.76562 121.292 9.76562H119.011V23H115.628ZM124.269 15.7188L128.245 23H124.511L120.62 15.7188H124.269ZM133.923 23H130.298L135.822 7H140.181L145.697 23H142.072L138.064 10.6562H137.939L133.923 23ZM133.697 16.7109H142.259V19.3516H133.697V16.7109ZM148.723 23V7H155.035C156.243 7 157.275 7.21615 158.129 7.64844C158.988 8.07552 159.642 8.68229 160.09 9.46875C160.543 10.25 160.77 11.1693 160.77 12.2266C160.77 13.2891 160.54 14.2031 160.082 14.9687C159.624 15.7292 158.96 16.3125 158.09 16.7187C157.225 17.125 156.178 17.3281 154.949 17.3281H150.723V14.6094H154.402C155.048 14.6094 155.585 14.5208 156.012 14.3438C156.439 14.1667 156.757 13.901 156.965 13.5469C157.178 13.1927 157.285 12.7526 157.285 12.2266C157.285 11.6953 157.178 11.2474 156.965 10.8828C156.757 10.5182 156.436 10.2422 156.004 10.0547C155.577 9.86198 155.038 9.76562 154.387 9.76562H152.105V23H148.723ZM157.363 15.7188L161.34 23H157.605L153.715 15.7188H157.363Z" fill="white"/>
</svg>
