<svg width="25" height="25" viewBox="0 0 25 25" fill="none" xmlns="http://www.w3.org/2000/svg">
<path d="M12.5 19.375C13.9167 19.375 15.2031 18.974 16.3594 18.1719C17.5156 17.3698 18.3542 16.3125 18.875 15H6.125C6.64583 16.3125 7.48438 17.3698 8.64062 18.1719C9.79688 18.974 11.0833 19.375 12.5 19.375ZM7.25 11.25L8.625 9.9375L9.9375 11.25L11.25 9.9375L8.625 7.25L5.9375 9.9375L7.25 11.25ZM15.0625 11.25L16.375 9.9375L17.75 11.25L19.0625 9.9375L16.375 7.25L13.75 9.9375L15.0625 11.25ZM12.5 25C10.7708 25 9.14583 24.6719 7.625 24.0156C6.10417 23.3594 4.78125 22.4688 3.65625 21.3438C2.53125 20.2188 1.64062 18.8958 0.984375 17.375C0.328125 15.8542 0 14.2292 0 12.5C0 10.7708 0.328125 9.14583 0.984375 7.625C1.64062 6.10417 2.53125 4.78125 3.65625 3.65625C4.78125 2.53125 6.10417 1.64062 7.625 0.984375C9.14583 0.328125 10.7708 0 12.5 0C14.2292 0 15.8542 0.328125 17.375 0.984375C18.8958 1.64062 20.2188 2.53125 21.3438 3.65625C22.4688 4.78125 23.3594 6.10417 24.0156 7.625C24.6719 9.14583 25 10.7708 25 12.5C25 14.2292 24.6719 15.8542 24.0156 17.375C23.3594 18.8958 22.4688 20.2188 21.3438 21.3438C20.2188 22.4688 18.8958 23.3594 17.375 24.0156C15.8542 24.6719 14.2292 25 12.5 25Z" fill="url(#paint0_linear_172_293)"/>
<defs>
<linearGradient id="paint0_linear_172_293" x1="21" y1="3" x2="5" y2="23" gradientUnits="userSpaceOnUse">
<stop stop-color="#FF9113"/>
<stop offset="1" stop-color="#AA5B00"/>
</linearGradient>
</defs>
</svg>
