<svg width="142" height="47" viewBox="0 0 142 47" fill="none" xmlns="http://www.w3.org/2000/svg">
<rect x="20.9639" width="5.07194" height="1.69065" rx="0.845324" fill="#F32A60"/>
<rect x="18.4277" y="3.38129" width="10.1439" height="1.69065" rx="0.845324" fill="#F32A60"/>
<rect x="18.4277" y="16.9065" width="10.1439" height="1.69065" rx="0.845324" fill="#FF9113"/>
<rect x="15.0464" y="6.7626" width="16.9065" height="1.69065" rx="0.845324" fill="#F32A60"/>
<rect x="15.0464" y="13.5252" width="16.9065" height="1.69065" rx="0.845324" fill="#F32A60"/>
<rect x="13.356" y="10.1439" width="20.2878" height="1.69065" rx="0.845324" fill="#F32A60"/>
<rect width="5.07194" height="1.69065" rx="0.845324" transform="matrix(1 0 0 -1 20.9639 47)" fill="#FF00B3"/>
<rect width="10.1439" height="1.69065" rx="0.845324" transform="matrix(1 0 0 -1 18.4277 43.6187)" fill="#FF00B3"/>
<rect width="10.1439" height="1.69065" rx="0.845324" transform="matrix(1 0 0 -1 18.4277 30.0935)" fill="#FF9113"/>
<rect width="16.9065" height="1.69065" rx="0.845324" transform="matrix(1 0 0 -1 15.0464 40.2374)" fill="#FF00B3"/>
<rect width="16.9065" height="1.69065" rx="0.845324" transform="matrix(1 0 0 -1 15.0464 33.4748)" fill="#FF00B3"/>
<rect width="20.2878" height="1.69065" rx="0.845324" transform="matrix(1 0 0 -1 13.356 36.8561)" fill="#FF00B3"/>
<rect x="47" y="20.964" width="5.07194" height="1.69065" rx="0.845324" transform="rotate(90 47 20.964)" fill="#00FFF2"/>
<rect x="43.6187" y="18.428" width="10.1439" height="1.69065" rx="0.845324" transform="rotate(90 43.6187 18.428)" fill="#00FFF2"/>
<rect x="30.0938" y="18.428" width="10.1439" height="1.69065" rx="0.845324" transform="rotate(90 30.0938 18.428)" fill="#FF9113"/>
<rect x="40.2373" y="15.0468" width="16.9065" height="1.69065" rx="0.845324" transform="rotate(90 40.2373 15.0468)" fill="#00FFF2"/>
<rect x="33.4746" y="15.0468" width="16.9065" height="1.69065" rx="0.845324" transform="rotate(90 33.4746 15.0468)" fill="#00FFF2"/>
<rect x="36.856" y="13.3561" width="20.2878" height="1.69065" rx="0.845324" transform="rotate(90 36.856 13.3561)" fill="#00FFF2"/>
<rect width="5.07194" height="1.69065" rx="0.845324" transform="matrix(4.37114e-08 1 1 -4.37114e-08 0 20.964)" fill="#B300FF"/>
<rect width="10.1439" height="1.69065" rx="0.845324" transform="matrix(4.37114e-08 1 1 -4.37114e-08 3.38135 18.428)" fill="#B300FF"/>
<rect width="10.1439" height="1.69065" rx="0.845324" transform="matrix(4.37114e-08 1 1 -4.37114e-08 16.9062 18.428)" fill="#FF9113"/>
<rect width="16.9065" height="1.69065" rx="0.845324" transform="matrix(4.37114e-08 1 1 -4.37114e-08 6.7627 15.0468)" fill="#B300FF"/>
<rect width="16.9065" height="1.69065" rx="0.845324" transform="matrix(4.37114e-08 1 1 -4.37114e-08 13.5254 15.0468)" fill="#B300FF"/>
<rect width="20.2878" height="1.69065" rx="0.845324" transform="matrix(4.37114e-08 1 1 -4.37114e-08 10.144 13.3561)" fill="#B300FF"/>
<path d="M61.206 32.4545V33.8182H57.2642V32.4545H61.206ZM58.1591 30.8864H59.9744V36.9886C59.9744 37.1562 60 37.2869 60.0511 37.3807C60.1023 37.4716 60.1733 37.5355 60.2642 37.5724C60.358 37.6094 60.4659 37.6278 60.5881 37.6278C60.6733 37.6278 60.7585 37.6207 60.8438 37.6065C60.929 37.5895 60.9943 37.5767 61.0398 37.5682L61.3253 38.919C61.2344 38.9474 61.1065 38.9801 60.9418 39.017C60.777 39.0568 60.5767 39.081 60.3409 39.0895C59.9034 39.1065 59.5199 39.0483 59.1903 38.9148C58.8636 38.7812 58.6094 38.5739 58.4276 38.2926C58.2457 38.0114 58.1563 37.6562 58.1591 37.2273V30.8864ZM66.5011 39.1278C65.8278 39.1278 65.2483 38.9915 64.7625 38.7188C64.2795 38.4432 63.9074 38.054 63.646 37.5511C63.3847 37.0455 63.254 36.4474 63.254 35.7571C63.254 35.0838 63.3847 34.4929 63.646 33.9844C63.9074 33.4759 64.2753 33.0795 64.7497 32.7955C65.227 32.5114 65.7866 32.3693 66.4287 32.3693C66.8605 32.3693 67.2625 32.4389 67.6347 32.5781C68.0097 32.7145 68.3364 32.9205 68.6148 33.196C68.896 33.4716 69.1148 33.8182 69.271 34.2358C69.4273 34.6506 69.5054 35.1364 69.5054 35.6932V36.1918H63.9784V35.0668H67.7966C67.7966 34.8054 67.7398 34.5739 67.6261 34.3722C67.5125 34.1705 67.3548 34.0128 67.1531 33.8991C66.9543 33.7827 66.7227 33.7244 66.4585 33.7244C66.183 33.7244 65.9386 33.7884 65.7256 33.9162C65.5153 34.0412 65.3506 34.2102 65.2312 34.4233C65.1119 34.6335 65.0509 34.8679 65.048 35.1264V36.196C65.048 36.5199 65.1077 36.7997 65.227 37.0355C65.3491 37.2713 65.521 37.4531 65.7426 37.581C65.9642 37.7088 66.227 37.7727 66.531 37.7727C66.7327 37.7727 66.9173 37.7443 67.0849 37.6875C67.2526 37.6307 67.396 37.5455 67.5153 37.4318C67.6347 37.3182 67.7256 37.179 67.7881 37.0142L69.467 37.125C69.3818 37.5284 69.2071 37.8807 68.9429 38.1818C68.6815 38.4801 68.3435 38.7131 67.9287 38.8807C67.5168 39.0455 67.0409 39.1278 66.5011 39.1278ZM74.8474 39.1278C74.177 39.1278 73.6003 38.9858 73.1173 38.7017C72.6372 38.4148 72.2679 38.017 72.0094 37.5085C71.7537 37 71.6259 36.4148 71.6259 35.7528C71.6259 35.0824 71.7551 34.4943 72.0136 33.9886C72.275 33.4801 72.6457 33.0838 73.1259 32.7997C73.606 32.5128 74.177 32.3693 74.8389 32.3693C75.4099 32.3693 75.9099 32.473 76.3389 32.6804C76.7679 32.8878 77.1074 33.179 77.3574 33.554C77.6074 33.929 77.7452 34.3693 77.7707 34.875H76.0577C76.0094 34.5483 75.8815 34.2855 75.6741 34.0866C75.4696 33.8849 75.2011 33.7841 74.8687 33.7841C74.5875 33.7841 74.3418 33.8608 74.1315 34.0142C73.9241 34.1648 73.7622 34.3849 73.6457 34.6747C73.5293 34.9645 73.471 35.3153 73.471 35.7273C73.471 36.1449 73.5278 36.5 73.6415 36.7926C73.758 37.0852 73.9213 37.3082 74.1315 37.4616C74.3418 37.6151 74.5875 37.6918 74.8687 37.6918C75.0761 37.6918 75.2622 37.6491 75.427 37.5639C75.5946 37.4787 75.7324 37.3551 75.8403 37.1932C75.9511 37.0284 76.0236 36.831 76.0577 36.6009H77.7707C77.7423 37.1009 77.606 37.5412 77.3616 37.9219C77.1202 38.2997 76.7864 38.5952 76.3602 38.8082C75.9341 39.0213 75.4298 39.1278 74.8474 39.1278ZM81.9484 35.2159V39H80.133V30.2727H81.8972V33.6094H81.9739C82.1217 33.223 82.3603 32.9205 82.6898 32.7017C83.0194 32.4801 83.4327 32.3693 83.9299 32.3693C84.3844 32.3693 84.7808 32.4688 85.1188 32.6676C85.4597 32.8636 85.7239 33.1463 85.9114 33.5156C86.1018 33.8821 86.1955 34.321 86.1927 34.8324V39H84.3773V35.1562C84.3802 34.7528 84.2779 34.4389 84.0705 34.2145C83.866 33.9901 83.579 33.8778 83.2097 33.8778C82.9626 33.8778 82.7438 33.9304 82.5535 34.0355C82.366 34.1406 82.2183 34.294 82.1103 34.4957C82.0052 34.6946 81.9512 34.9347 81.9484 35.2159Z" fill="white"/>
<path d="M58.2642 20V5.45455H67.8949V7.99006H61.3395V11.456H67.2557V13.9915H61.3395V20H58.2642ZM70.9634 20V5.45455H74.0387V17.4645H80.2745V20H70.9634ZM96.1112 12.7273C96.1112 14.3134 95.8105 15.6629 95.2092 16.7756C94.6126 17.8883 93.7982 18.7382 92.766 19.3253C91.7385 19.9077 90.5832 20.1989 89.3001 20.1989C88.0075 20.1989 86.8474 19.9053 85.82 19.3182C84.7925 18.7311 83.9805 17.8812 83.3839 16.7685C82.7873 15.6558 82.489 14.3087 82.489 12.7273C82.489 11.1411 82.7873 9.79167 83.3839 8.67898C83.9805 7.56629 84.7925 6.71875 85.82 6.13636C86.8474 5.54924 88.0075 5.25568 89.3001 5.25568C90.5832 5.25568 91.7385 5.54924 92.766 6.13636C93.7982 6.71875 94.6126 7.56629 95.2092 8.67898C95.8105 9.79167 96.1112 11.1411 96.1112 12.7273ZM92.9933 12.7273C92.9933 11.6998 92.8394 10.8333 92.5316 10.1278C92.2286 9.42235 91.8001 8.88731 91.2461 8.52273C90.6921 8.15814 90.0434 7.97585 89.3001 7.97585C88.5567 7.97585 87.908 8.15814 87.354 8.52273C86.8001 8.88731 86.3692 9.42235 86.0614 10.1278C85.7584 10.8333 85.6069 11.6998 85.6069 12.7273C85.6069 13.7547 85.7584 14.6212 86.0614 15.3267C86.3692 16.0322 86.8001 16.5672 87.354 16.9318C87.908 17.2964 88.5567 17.4787 89.3001 17.4787C90.0434 17.4787 90.6921 17.2964 91.2461 16.9318C91.8001 16.5672 92.2286 16.0322 92.5316 15.3267C92.8394 14.6212 92.9933 13.7547 92.9933 12.7273ZM99.3892 20V5.45455H105.128C106.226 5.45455 107.164 5.65104 107.94 6.04403C108.722 6.43229 109.316 6.9839 109.723 7.69886C110.135 8.40909 110.341 9.24479 110.341 10.206C110.341 11.1719 110.133 12.0028 109.716 12.6989C109.299 13.3902 108.696 13.9205 107.905 14.2898C107.119 14.6591 106.167 14.8438 105.05 14.8438H101.207V12.3722H104.553C105.14 12.3722 105.627 12.2917 106.016 12.1307C106.404 11.9697 106.693 11.7282 106.882 11.4062C107.076 11.0843 107.173 10.6842 107.173 10.206C107.173 9.72301 107.076 9.31581 106.882 8.98438C106.693 8.65294 106.402 8.40199 106.009 8.23153C105.62 8.05634 105.13 7.96875 104.538 7.96875H102.464V20H99.3892ZM107.244 13.3807L110.859 20H107.464L103.928 13.3807H107.244ZM116.021 20H112.726L117.747 5.45455H121.71L126.724 20H123.429L119.786 8.77841H119.672L116.021 20ZM115.815 14.2827H123.599V16.6832H115.815V14.2827ZM129.475 20V5.45455H135.214C136.312 5.45455 137.25 5.65104 138.026 6.04403C138.808 6.43229 139.402 6.9839 139.809 7.69886C140.221 8.40909 140.427 9.24479 140.427 10.206C140.427 11.1719 140.219 12.0028 139.802 12.6989C139.385 13.3902 138.781 13.9205 137.991 14.2898C137.205 14.6591 136.253 14.8438 135.136 14.8438H131.293V12.3722H134.638C135.226 12.3722 135.713 12.2917 136.102 12.1307C136.49 11.9697 136.779 11.7282 136.968 11.4062C137.162 11.0843 137.259 10.6842 137.259 10.206C137.259 9.72301 137.162 9.31581 136.968 8.98438C136.779 8.65294 136.487 8.40199 136.094 8.23153C135.706 8.05634 135.216 7.96875 134.624 7.96875H132.55V20H129.475ZM137.33 13.3807L140.945 20H137.55L134.013 13.3807H137.33Z" fill="white"/>
</svg>
